<svg width="440" height="407" viewBox="0 0 440 407" fill="none" xmlns="http://www.w3.org/2000/svg">
<path d="M293.987 2.75363C316.63 8.82077 340.066 30.0336 361.343 59.8736C382.604 89.6927 401.65 128.044 415.539 168.245C429.428 208.446 438.152 250.472 438.79 287.637C439.428 324.818 431.972 357.048 413.6 377.756C405.412 386.985 393.186 393.742 377.971 398.288C362.758 402.834 344.589 405.161 324.558 405.554C284.494 406.341 237.04 399.391 191.013 387.058C144.986 374.726 100.415 357.017 66.1119 336.304C48.9605 325.947 34.3895 314.848 23.488 303.305C12.5845 291.76 5.37448 279.795 2.89785 267.708C-2.65894 240.589 6.99973 208.949 26.1425 177.069C45.2774 145.202 73.8455 113.168 105.975 85.2975C138.103 57.4271 173.773 33.7365 207.095 18.5431C240.441 3.33914 271.344 -3.31351 293.987 2.75363Z" fill="url(#paint0_linear_1_1389)" stroke="black"/>
<defs>
<linearGradient id="paint0_linear_1_1389" x1="294.116" y1="2.27067" x2="190.884" y2="387.541" gradientUnits="userSpaceOnUse">
<stop stop-color="#164AE4" stop-opacity="0.5"/>
<stop offset="1" stop-color="#164AE4"/>
</linearGradient>
</defs>
</svg>
